<?xml version="1.0" encoding="UTF-8" standalone="no"?><!-- Generator: Gravit.io --><svg xmlns="http://www.w3.org/2000/svg" xmlns:xlink="http://www.w3.org/1999/xlink" style="isolation:isolate" viewBox="0 0 1024 1024" width="1024pt" height="1024pt"><defs><clipPath id="_clipPath_FSRR2qTEEQT9LraHxuRKaQh64n5diDp6"><rect width="1024" height="1024"/></clipPath></defs><g clip-path="url(#_clipPath_FSRR2qTEEQT9LraHxuRKaQh64n5diDp6)"><clipPath id="_clipPath_mYwjg7J9cMeC07dVRiJiKvGlOwMLYYrw"><rect x="0" y="0" width="1024" height="1024" transform="matrix(1,0,0,1,0,0)" fill="rgb(255,255,255)"/></clipPath><g clip-path="url(#_clipPath_mYwjg7J9cMeC07dVRiJiKvGlOwMLYYrw)"><g><circle vector-effect="non-scaling-stroke" cx="512" cy="512" r="269.9999999999999" fill="rgb(247,151,9)"/><circle vector-effect="non-scaling-stroke" cx="509.9999999999999" cy="516.9999999999999" r="240.0000000000001" fill="rgb(240,240,240)"/><radialGradient id="_rgradient_0" fx="0.5" fy="0.5000000000000001" cx="0.5" cy="0.5000000000000001" r="1" gradientTransform="matrix(441,0,0,450.578,290,288.711)" gradientUnits="userSpaceOnUse"><stop offset="1.25%" stop-opacity="1" style="stop-color:rgb(157,62,25)"/><stop offset="76.66666666666667%" stop-opacity="1" style="stop-color:rgb(204,7,0)"/><stop offset="97.5%" stop-opacity="1" style="stop-color:rgb(255,53,53)"/></radialGradient><path d=" M 501 538.987 Q 510.772 734.08 501 738.987 C 491.228 743.894 353.175 687.547 356 675.987 Q 358.825 664.427 501 538.987 L 501 538.987 L 501 538.987 L 501 538.987 L 501 538.987 L 501 538.987 L 501 538.987 L 501 538.987 Z  M 490.6 524.486 Q 359.558 669.347 349.178 665.907 C 338.799 662.467 281.024 525.006 291.196 518.829 Q 301.367 512.652 490.6 524.486 L 490.6 524.486 L 490.6 524.486 L 490.6 524.486 L 490.6 524.486 L 490.6 524.486 L 490.6 524.486 L 490.6 524.486 Z  M 518 536.987 Q 508.228 732.08 518 736.987 C 527.772 741.894 665.825 685.547 663 673.987 Q 660.175 662.427 518 536.987 L 518 536.987 L 518 536.987 L 518 536.987 L 518 536.987 L 518 536.987 L 518 536.987 Z  M 530.4 524.486 Q 661.442 669.347 671.822 665.907 C 682.201 662.467 739.976 525.006 729.804 518.829 Q 719.633 512.652 530.4 524.486 L 530.4 524.486 L 530.4 524.486 L 530.4 524.486 L 530.4 524.486 L 530.4 524.486 Z  M 502 490.013 Q 511.772 294.92 502 290.013 C 492.228 285.106 354.175 341.453 357 353.013 Q 359.825 364.573 502 490.013 L 502 490.013 L 502 490.013 L 502 490.013 L 502 490.013 Z  M 491.6 503.514 Q 360.558 358.653 350.178 362.093 C 339.799 365.533 282.024 502.994 292.196 509.171 Q 302.367 515.348 491.6 503.514 L 491.6 503.514 L 491.6 503.514 L 491.6 503.514 Z  M 518 489.013 Q 508.228 293.92 518 289.013 C 527.772 284.106 665.825 340.453 663 352.013 Q 660.175 363.573 518 489.013 L 518 489.013 L 518 489.013 Z  M 530.4 500.514 Q 661.442 355.653 671.822 359.093 C 682.201 362.533 739.976 499.994 729.804 506.171 Q 719.633 512.348 530.4 500.514 Z " fill-rule="evenodd" fill="url(#_rgradient_0)"/><mask id="_mask_m9IU0pNLCaADIBH669p6z8zTpKDEvaay" x="-200%" y="-200%" width="400%" height="400%"><rect x="-200%" y="-200%" width="400%" height="400%" style="fill:white;"/><line x1="434" y1="384" x2="457.882" y2="417" fill="black" stroke="none"/></mask><line x1="434" y1="384" x2="457.882" y2="417" mask="url(#_mask_m9IU0pNLCaADIBH669p6z8zTpKDEvaay)" vector-effect="non-scaling-stroke" stroke-width="16" stroke="rgb(255,255,255)" stroke-opacity="100" stroke-linejoin="round" stroke-linecap="round" stroke-miterlimit="3"/><mask id="_mask_fBI4qcXAbPuq5RI7C1ENGTp6HaItfMKL" x="-200%" y="-200%" width="400%" height="400%"><rect x="-200%" y="-200%" width="400%" height="400%" style="fill:white;"/><line x1="349.646" y1="579.382" x2="412.253" y2="560.282" fill="black" stroke="none"/></mask><line x1="349.646" y1="579.382" x2="412.253" y2="560.282" mask="url(#_mask_fBI4qcXAbPuq5RI7C1ENGTp6HaItfMKL)" vector-effect="non-scaling-stroke" stroke-width="16" stroke="rgb(255,255,255)" stroke-opacity="100" stroke-linejoin="round" stroke-linecap="round" stroke-miterlimit="3"/><mask id="_mask_9I02yTnoRiyu3nqLV0kwPJkkeRxKAF0c" x="-200%" y="-200%" width="400%" height="400%"><rect x="-200%" y="-200%" width="400%" height="400%" style="fill:white;"/><line x1="437.72" y1="655.784" x2="467.432" y2="618.645" fill="black" stroke="none"/></mask><line x1="437.72" y1="655.784" x2="467.432" y2="618.645" mask="url(#_mask_9I02yTnoRiyu3nqLV0kwPJkkeRxKAF0c)" vector-effect="non-scaling-stroke" stroke-width="16" stroke="rgb(255,255,255)" stroke-opacity="100" stroke-linejoin="round" stroke-linecap="round" stroke-miterlimit="3"/><mask id="_mask_OLgATe4JcOJT4vDyq9nxOqe6NCvWZIx5" x="-200%" y="-200%" width="400%" height="400%"><rect x="-200%" y="-200%" width="400%" height="400%" style="fill:white;"/><line x1="610.686" y1="469.024" x2="658.57" y2="458.412" fill="black" stroke="none"/></mask><line x1="610.686" y1="469.024" x2="658.57" y2="458.412" mask="url(#_mask_OLgATe4JcOJT4vDyq9nxOqe6NCvWZIx5)" vector-effect="non-scaling-stroke" stroke-width="16" stroke="rgb(255,255,255)" stroke-opacity="100" stroke-linejoin="round" stroke-linecap="round" stroke-miterlimit="3"/><mask id="_mask_fqkcxCCzL893fdUFV3Cj4fsw1H7YPr4u" x="-200%" y="-200%" width="400%" height="400%"><rect x="-200%" y="-200%" width="400%" height="400%" style="fill:white;"/><line x1="631.909" y1="554.595" x2="672.232" y2="569.832" fill="black" stroke="none"/></mask><line x1="631.909" y1="554.595" x2="672.232" y2="569.832" mask="url(#_mask_fqkcxCCzL893fdUFV3Cj4fsw1H7YPr4u)" vector-effect="non-scaling-stroke" stroke-width="16" stroke="rgb(255,255,255)" stroke-opacity="100" stroke-linejoin="round" stroke-linecap="round" stroke-miterlimit="3"/></g></g></g></svg>